<svg width="171" height="154" viewBox="0 0 171 154" fill="none" xmlns="http://www.w3.org/2000/svg">
<path d="M161.746 13.0017V0.254314H163.936V4.21915H165.711V0.162109H167.923V13.3014H165.711V6.6626H163.936V13.0017H161.746ZM155.798 10.2817C155.506 10.3892 155.138 10.4738 154.692 10.5352C154.246 10.5967 153.801 10.6274 153.355 10.6274H151.695V0.507879H155.752V2.55945H153.839V8.57586H154.07C154.777 8.57586 155.353 8.48366 155.798 8.29924V10.2817ZM161.054 10.1895C160.378 10.4814 159.487 10.6274 158.38 10.6274H156.421V0.507879H160.685V2.55945H158.565V8.57586H158.91C159.802 8.57586 160.516 8.45292 161.054 8.20704V10.1895ZM168.246 17.7273H152.687V12.0566H155.222V15.376H168.246V17.7273Z" fill="white"/>
<path d="M146.649 9.68233V0.162109H149.115V9.68233H146.649ZM145.404 8.85248C144.405 9.29814 142.699 9.52097 140.287 9.52097H133.141V7.58465H137.751V6.13242H134.063V0.415675H143.883V2.30589H136.46V4.26525H144.067V6.13242H140.194V7.58465C141.408 7.58465 142.446 7.53087 143.306 7.42329C144.167 7.31572 144.866 7.13899 145.404 6.89311V8.85248ZM149.461 17.7273H134.57V13.3705H146.695V12.2641H134.524V10.5122H149.115V14.8458H136.99V15.9754H149.461V17.7273Z" fill="white"/>
<path d="M128.349 13.3014V0.162109H130.838V13.3014H128.349ZM115.578 10.2586V0.507879H125.767V10.2586H115.578ZM123.3 2.74386H118.068V8.02263H123.3V2.74386ZM131.207 15.376V17.7273H116.247V11.8031H118.782V15.376H131.207Z" fill="white"/>
<path d="M97.624 3.13524V0.714844H112.492V12.3788H109.887V3.13524H97.624ZM113.529 17.1044H96.6328V14.6609H102.603V7.12313H105.185V14.6609H113.529V17.1044Z" fill="white"/>
<path d="M83.3069 11.849C83.3069 11.2651 83.4068 10.7503 83.6065 10.3046C83.8063 9.84357 84.0522 9.4517 84.3442 9.12898C84.6362 8.80626 85.0127 8.43744 85.4737 8.02252C86.0577 7.48465 86.4879 7.03131 86.7646 6.66248C87.0412 6.27829 87.1795 5.82495 87.1795 5.30245C87.1795 4.61091 86.9029 4.05 86.3496 3.6197C85.7964 3.18941 85.0434 2.97426 84.0906 2.97426C82.4463 2.97426 81.1631 3.56592 80.241 4.74922L78.1895 3.50445C78.8349 2.62849 79.6724 1.95232 80.702 1.47592C81.7317 0.984163 82.9457 0.738281 84.3442 0.738281C86.0346 0.738281 87.387 1.1071 88.4012 1.84475C89.4308 2.58239 89.9457 3.58897 89.9457 4.86448C89.9457 5.49455 89.8381 6.05546 89.6229 6.54723C89.4232 7.02362 89.1696 7.43086 88.8622 7.76895C88.5703 8.09167 88.1784 8.47586 87.6866 8.92152C87.0719 9.47475 86.6186 9.95883 86.3266 10.3738C86.0346 10.7733 85.8886 11.2651 85.8886 11.849H83.3069ZM84.5977 17.22C84.106 17.22 83.691 17.0663 83.353 16.759C83.0302 16.4363 82.8689 16.0444 82.8689 15.5834C82.8689 15.1223 83.0302 14.7381 83.353 14.4308C83.691 14.1234 84.106 13.9698 84.5977 13.9698C85.0895 13.9698 85.4967 14.1234 85.8195 14.4308C86.1575 14.7381 86.3266 15.1223 86.3266 15.5834C86.3266 16.0444 86.1575 16.4363 85.8195 16.759C85.4967 17.0663 85.0895 17.22 84.5977 17.22Z" fill="white"/>
<path d="M76.0729 9.59012V17.8656H73.6295V0.162109H76.0729V7.05447H78.1706V9.59012H76.0729ZM65.792 0.715342V4.79544C65.792 8.45292 65.4001 11.2652 64.6164 13.2322C63.8326 15.1839 62.5725 16.1905 60.8359 16.252V13.8316C61.7426 13.6625 62.3881 12.8481 62.7723 11.3881C63.1718 9.92821 63.3716 7.81517 63.3716 5.049V3.08963H60.8359V0.715342H65.792ZM71.4396 0.715342V5.02595C71.4396 8.76027 70.9862 11.6494 70.0795 13.6933C69.1882 15.7372 67.8128 16.7975 65.9533 16.8744V14.454C67.9972 14.1466 69.0192 11.0885 69.0192 5.27951V3.08963H66.5527V0.715342H71.4396Z" fill="white"/>
<path d="M50.6942 0C52.9686 0 54.782 0.261249 56.1344 0.783747C57.4867 1.29088 58.1629 2.11304 58.1629 3.25024C58.1629 4.38745 57.4867 5.21729 56.1344 5.73979C54.782 6.26229 52.9686 6.52354 50.6942 6.52354C48.4198 6.52354 46.5988 6.26229 45.2311 5.73979C43.8633 5.21729 43.1795 4.38745 43.1795 3.25024C43.1795 2.11304 43.8557 1.29088 45.208 0.783747C46.5757 0.261249 48.4045 0 50.6942 0ZM50.6942 1.93632C49.2189 1.93632 48.0356 2.04389 47.1443 2.25904C46.2684 2.47418 45.8304 2.80458 45.8304 3.25024C45.8304 3.71127 46.2684 4.04936 47.1443 4.26451C48.0356 4.47965 49.2189 4.58722 50.6942 4.58722C52.1695 4.58722 53.3451 4.47965 54.2211 4.26451C55.097 4.04936 55.535 3.71127 55.535 3.25024C55.535 2.80458 55.097 2.47418 54.2211 2.25904C53.3451 2.04389 52.1695 1.93632 50.6942 1.93632ZM42.2344 9.40496V7.42254H59.131V9.40496H42.2344ZM45.8073 14.8451V15.9516H58.3012V17.7265H43.3408V13.3698H55.6042V12.2864H43.2947V10.5575H58.0707V14.8451H45.8073Z" fill="white"/>
<path d="M40.0479 10.7196H37.5584V6.29377H34.5387V9.86674H24.6035V0.507879H34.5387V3.85033H37.5584V0.162109H40.0479V10.7196ZM27.07 2.72081V7.65381H32.0491V2.72081H27.07ZM40.0479 11.5495V17.9578H37.5123V13.8085H25.3181V11.5495H40.0479Z" fill="white"/>
<path d="M17.2578 17.8656H14.7452V16.1598H9.97359V13.9007H14.7452V0.162109H17.2578V17.8656ZM2.38969 8.57586V0.715342H11.956V8.57586H2.38969ZM4.78703 2.97438V6.33988H9.55867V2.97438H4.78703ZM13.5235 11.8492C12.4631 12.2948 10.765 12.5176 8.42915 12.5176H8.08338V17.8656H5.59383V12.5176H1.16797V10.2125H8.4522C10.8188 10.2125 12.5092 9.98968 13.5235 9.54402V11.8492Z" fill="white"/>
<g clip-path="url(#clip0_2134_7826)">
<path d="M109.156 31.1895H102.676C101.51 31.1895 100.732 31.9635 100.732 33.1246V79.2447C100.732 82.7279 103.065 85.05 106.564 85.05C110.063 85.05 112.396 82.7279 112.396 79.2447V34.4146C112.396 32.544 111.1 31.1895 109.156 31.1895Z" fill="white"/>
<path d="M96.1967 31.1895H88.4208C87.2545 31.1895 86.4769 31.9635 86.4769 33.1246V53.1207H83.8849C82.3297 53.1207 81.293 55.0558 81.293 57.9585C81.293 60.8612 82.3297 62.7963 83.8849 62.7963H86.4769V79.2447C86.4769 82.7279 88.8096 85.05 92.3088 85.05C95.8079 85.05 98.1407 82.7279 98.1407 79.2447V33.1246C98.1407 31.9635 97.3631 31.1895 96.1967 31.1895Z" fill="white"/>
<path d="M50.3954 31.1895H38.7316C37.5652 31.1895 36.7876 31.9635 36.7876 33.1246V41.0263H32.5822C31.027 41.0263 29.9902 42.9614 29.9902 45.864C29.9902 48.7667 31.027 50.7018 32.5822 50.7018H36.7876V54.7333C36.7876 58.2165 39.3796 60.5386 45.2115 60.5386C51.0434 60.5386 54.2834 58.0875 54.2834 54.7333V35.0597C54.2834 32.673 52.7282 31.1895 50.3954 31.1895Z" fill="white"/>
<path d="M2.44397 59.8936C8.53507 59.8936 14.1726 58.2165 17.6717 55.3138C21.1709 58.2165 26.8084 59.8936 32.8995 59.8936C34.0658 59.8936 34.8434 59.1196 34.8434 57.9585V52.7982C34.8434 52.624 34.824 52.4692 34.7916 52.3144H32.5884C31.0851 52.3144 29.8928 51.4307 29.167 49.9084C27.249 48.7796 26.1021 46.7219 26.1021 44.0902V40.865H29.7438C30.463 39.9362 31.4285 39.4137 32.5884 39.4137H34.7916C34.824 39.2589 34.8434 39.1041 34.8434 38.9299V33.1246C34.8434 31.9635 34.0658 31.1895 32.8995 31.1895H2.44397C1.27759 31.1895 0.5 31.9635 0.5 33.1246V38.9299C0.5 40.091 1.27759 40.865 2.44397 40.865H9.24785V44.0902C9.24785 48.1539 6.5263 50.8631 2.44397 50.8631C1.27759 50.8631 0.5 51.6371 0.5 52.7982V57.9585C0.5 59.1196 1.27759 59.8936 2.44397 59.8936Z" fill="white"/>
<path d="M118.663 60.5382H124.819C132.594 60.5382 139.01 58.4096 143.286 54.7974C147.563 58.4096 153.978 60.5382 161.754 60.5382H167.91C169.076 60.5382 169.854 59.7642 169.854 58.6031V52.7978C169.854 51.6367 169.076 50.8626 167.91 50.8626H161.754C156.44 50.8626 153.006 48.089 153.006 42.7997H167.91C169.076 42.7997 169.854 42.0256 169.854 40.8646V35.0592C169.854 33.8982 169.076 33.1241 167.91 33.1241H153.006C153.006 30.802 151.451 29.2539 149.118 29.2539H137.454C135.122 29.2539 133.566 30.802 133.566 33.1241H118.663C117.496 33.1241 116.719 33.8982 116.719 35.0592V40.8646C116.719 42.0256 117.496 42.7997 118.663 42.7997H133.566C133.566 48.089 130.132 50.8626 124.819 50.8626H118.663C117.496 50.8626 116.719 51.6367 116.719 52.7978V58.6031C116.719 59.7642 117.496 60.5382 118.663 60.5382Z" fill="white"/>
<path d="M168.557 62.248H118.014C116.939 62.248 116.07 63.1124 116.07 64.1832V66.7633C116.07 68.8984 117.813 70.6335 119.958 70.6335H126.451C126.704 70.6335 126.872 70.9238 126.73 71.1302C126.069 72.072 124.818 72.1816 123.632 72.1816H123.095C119.641 72.1816 116.628 74.7747 116.407 78.1998C116.161 81.9539 119.155 85.0824 122.874 85.0824H123.632C129.84 85.0824 133.611 82.599 135.678 80.5155C138.756 77.4193 139.722 73.7233 140.026 71.4656C140.091 70.9883 140.506 70.6335 140.986 70.6335H146.856C147.394 70.6335 147.828 71.0657 147.828 71.6011V79.2448C147.828 82.728 150.939 85.0501 155.604 85.0501C160.27 85.0501 163.38 82.728 163.38 79.2448V71.6011C163.38 71.0657 163.814 70.6335 164.352 70.6335H166.62C168.765 70.6335 170.508 68.8984 170.508 66.7633V64.1832C170.508 63.1124 169.64 62.248 168.564 62.248H168.557Z" fill="white"/>
<path d="M52.3391 62.4727H2.44397C1.36831 62.4727 0.5 63.3435 0.5 64.4078V75.3734C0.5 80.366 4.56289 84.4039 9.57185 84.4039H45.2113C50.2202 84.4039 54.2831 80.3595 54.2831 75.3734V64.4078C54.2831 63.337 53.4148 62.4727 52.3391 62.4727ZM41.2844 74.0188C41.2067 74.38 40.8827 74.6252 40.5263 74.6252C40.468 74.6252 40.4161 74.6252 40.3578 74.6058C39.3081 74.3736 38.524 73.9479 37.9473 73.4189C34.5194 75.6895 30.0742 76.8763 24.9227 76.8763C24.1646 76.8763 23.3935 76.8505 22.6029 76.7989C17.7819 76.4893 14.1791 75.3476 14.0235 75.296C13.6153 75.167 13.3885 74.7284 13.5246 74.322C13.6542 73.9156 14.0948 73.6898 14.503 73.8189C14.6391 73.864 28.0655 78.0438 37.0142 72.1869C36.5412 71.2645 36.444 70.3034 36.5152 69.6519C36.5671 69.2262 36.9559 68.9295 37.3771 68.9682C37.8047 69.0133 38.1093 69.4004 38.0639 69.8196C38.0445 69.9938 37.9797 71.0516 38.6925 71.9418C38.6925 71.9418 38.699 71.9418 38.7055 71.9547C38.7055 71.9547 38.7055 71.9547 38.7055 71.9612C39.0942 72.4385 39.7098 72.8707 40.6948 73.09C41.116 73.1803 41.3816 73.5931 41.2844 74.0124V74.0188Z" fill="white"/>
<path d="M83.8844 51.1856V33.1246C83.8844 31.9635 83.1068 31.1895 81.9404 31.1895H59.9088C58.7424 31.1895 57.9648 31.9635 57.9648 33.1246V82.4699C57.9648 83.631 58.7424 84.405 59.9088 84.405H81.9404C83.1068 84.405 83.8844 83.631 83.8844 82.4699V64.7314C81.1629 64.7314 79.3485 62.0222 79.3485 57.9585C79.3485 53.8948 81.1629 51.1856 83.8844 51.1856ZM71.7929 74.4069C71.7929 74.8907 71.4041 75.2777 70.9181 75.2777C70.4322 75.2777 70.0434 74.8907 70.0434 74.4069V41.1875C70.0434 40.7037 70.4322 40.3167 70.9181 40.3167C71.4041 40.3167 71.7929 40.7037 71.7929 41.1875V74.4069Z" fill="white"/>
</g>
<path d="M23.2548 109.621V125.617H21.0224V109.621H23.2548ZM9.87785 121.1C11.0995 121.091 12.497 121.091 13.956 121.056V119.702C12.207 119.386 11.0644 118.296 11.0732 116.793C11.0644 115.009 12.6904 113.787 15.0458 113.787C17.4189 113.787 19.0712 115.009 19.0712 116.793C19.0712 118.287 17.9286 119.377 16.1708 119.702V120.977C17.5155 120.915 18.8603 120.81 20.1435 120.643L20.3017 122.295C16.7948 122.901 13.0243 122.937 10.1767 122.928L9.87785 121.1ZM10.1943 113.154V111.396H13.956V109.691H16.1884V111.396H19.915V113.154H10.1943ZM13.2001 116.793C13.1913 117.637 13.956 118.094 15.0458 118.094C16.1708 118.094 16.9267 117.637 16.9267 116.793C16.9267 115.967 16.1708 115.501 15.0458 115.492C13.956 115.501 13.1913 115.967 13.2001 116.793ZM31.0729 113.242C31.0641 116.107 32.2857 118.999 34.8521 120.238L33.4986 122.031C31.7848 121.179 30.6246 119.597 29.9654 117.672C29.2623 119.737 28.0318 121.434 26.2213 122.33L24.8326 120.52C27.5484 119.271 28.8229 116.213 28.8229 113.242V110.852H31.0729V113.242ZM35.5553 125.617V109.621H37.8053V115.791H40.1607V117.689H37.8053V125.617H35.5553ZM57.4316 110.518V111.871C57.4404 113.225 57.4404 114.745 57.08 116.705H59.1718V118.498H44.5293V116.705H54.7949C55.1464 114.921 55.1904 113.576 55.1992 112.311H46.3222V110.518H57.4316ZM46.3925 125.318V119.904H48.6074V123.525H57.8886V125.318H46.3925ZM73.4235 109.621V125.652H71.1735V117.566H68.2907V115.773H71.1735V109.621H73.4235ZM59.8356 120.906C62.4108 119.755 63.6588 117.03 63.6676 114.631V114.016H60.3454V112.223H63.6676V109.973H65.9176V112.223H69.152V114.016H65.9V114.631C65.8913 116.942 67.1745 119.526 69.7848 120.66L68.5895 122.383C66.7702 121.627 65.4957 120.098 64.7926 118.278C64.1071 120.212 62.8414 121.838 61.0133 122.629L59.8356 120.906ZM87.3369 110.729V118.111H79.7256V110.729H87.3369ZM80.6396 123.789C84.0234 123.341 85.6934 121.609 85.7021 119.834V119.43H87.917V119.834C87.917 121.609 89.5957 123.341 93.0146 123.789L92.1357 125.547C89.6221 125.169 87.7939 124.079 86.8271 122.576C85.8516 124.079 84.0234 125.169 81.501 125.547L80.6396 123.789ZM81.9404 116.336H85.1221V112.504H81.9404V116.336ZM89.6924 120.186V109.621H91.9424V113.611H94.1045V115.475H91.9424V120.186H89.6924ZM104.085 110.5V112.293H100.877C100.982 113.989 102.204 115.668 104.7 116.354L103.575 118.094C101.747 117.566 100.472 116.468 99.7429 115.079C99.0221 116.591 97.7038 117.795 95.8054 118.375L94.6804 116.617C97.2292 115.888 98.4684 114.104 98.5739 112.293H95.2956V110.5H104.085ZM97.3171 125.441V118.973H99.5319V120.467H105.79V118.973H108.022V125.441H97.3171ZM99.5319 123.648H105.79V122.207H99.5319V123.648ZM105.772 118.305V109.621H108.022V118.305H105.772ZM117.299 109.85C120.982 109.85 123.109 110.816 123.118 112.574C123.109 114.358 120.982 115.316 117.299 115.316C113.608 115.316 111.463 114.358 111.463 112.574C111.463 110.816 113.608 109.85 117.299 109.85ZM110.004 117.848V116.072H124.594V117.848H110.004ZM111.692 120.414V118.779H122.819V122.857H113.907V123.824H123.241V125.512H111.709V121.293H120.604V120.414H111.692ZM113.819 112.574C113.81 113.356 114.952 113.664 117.299 113.664C119.663 113.664 120.797 113.356 120.797 112.574C120.797 111.862 119.663 111.484 117.299 111.484C114.952 111.484 113.81 111.862 113.819 112.574ZM132.074 124H129.226L133.638 111.273H137.031L141.426 124H138.595L137.637 121.064H133.032L132.074 124ZM133.7 119.008H136.969L135.379 114.139H135.291L133.7 119.008ZM142.687 124V114.455H145.288V124H142.687ZM142.564 111.889C142.564 111.15 143.205 110.562 143.988 110.553C144.761 110.562 145.403 111.15 145.394 111.889C145.403 112.609 144.761 113.207 143.988 113.207C143.205 113.207 142.564 112.609 142.564 111.889ZM161.228 121.996V123.842H146.585V121.996H152.755V119.588H148.273V114.209H157.325V112.451H148.255V110.658H159.54V115.967H150.523V117.76H159.909V119.588H154.987V121.996H161.228ZM19.4646 148.176C16.8103 148.176 14.8679 146.611 14.824 144.414H17.3904C17.4519 145.407 18.3572 146.093 19.4646 146.084C20.783 146.093 21.7234 145.161 21.7146 143.834C21.7234 142.48 20.7654 141.54 19.4295 141.531C18.4714 141.531 17.8035 141.892 17.4255 142.604H15.0349L15.7205 135.273H23.5603V137.436H17.9002L17.5486 140.652H17.6541C18.1199 140.028 19.0867 139.571 20.2029 139.58C22.5408 139.571 24.281 141.32 24.281 143.764C24.281 146.339 22.3298 148.176 19.4646 148.176ZM40.0092 145.961V147.789H25.3666V145.961H31.5541V142.832H33.7866V145.961H40.0092ZM25.8588 141.637C29.5063 141.197 31.3168 139.387 31.519 137.611H26.6323V135.818H31.5541V133.814H33.7866V135.818H38.726V137.611H33.8393C34.0239 139.387 35.8432 141.197 39.4819 141.637L38.6733 143.377C35.808 143.008 33.7426 141.821 32.6616 140.169C31.5981 141.821 29.5414 143.008 26.685 143.377L25.8588 141.637ZM53.4347 133.621V138.209H55.5968V140.072H53.4347V145.275H51.1847V133.621H53.4347ZM40.8487 138.719C40.84 136.337 42.7823 134.649 45.2433 134.658C47.6954 134.649 49.6027 136.337 49.6027 138.719C49.6027 141.065 47.6954 142.779 45.2433 142.779C42.7823 142.779 40.84 141.065 40.8487 138.719ZM43.0636 149.336V144.045H45.296V147.543H54.0148V149.336H43.0636ZM43.0636 138.719C43.046 140.02 44.0216 140.828 45.2433 140.828C46.4737 140.828 47.4142 140.02 47.423 138.719C47.4142 137.383 46.4737 136.601 45.2433 136.609C44.0216 136.601 43.046 137.383 43.0636 138.719ZM69.9891 133.621V149.617H67.8445V133.621H69.9891ZM56.2605 140.547C56.2605 136.97 57.6228 134.755 59.741 134.764C61.6658 134.755 62.9842 136.557 63.2303 139.545H64.5398V133.85H66.6492V148.879H64.5398V141.32H63.2478C63.0545 144.458 61.7098 146.365 59.741 146.365C57.6228 146.365 56.2605 144.142 56.2605 140.547ZM58.3348 140.547C58.3172 143.008 58.8445 144.221 59.741 144.203C60.6639 144.221 61.2088 143.008 61.2 140.547C61.2088 138.095 60.6639 136.873 59.741 136.873C58.8445 136.873 58.3172 138.095 58.3348 140.547ZM84.588 135.168V136.943H81.3537C81.3976 138.525 82.5402 140.125 85.0978 140.775L84.1134 142.498C82.2589 142.032 80.9845 141.03 80.2638 139.747C79.5519 141.162 78.2687 142.27 76.3966 142.797L75.3419 141.021C77.8996 140.362 79.0861 138.666 79.1212 136.943H75.9044V135.168H79.1212V133.551H81.3888V135.168H84.588ZM76.8888 147.842C79.6925 147.499 81.257 146.392 81.6701 145.188H77.5744V143.43H88.3498V145.188H84.2716C84.6847 146.365 86.2668 147.508 89.0529 147.877L88.2619 149.582C85.6867 149.239 83.8849 148.22 82.9533 146.849C82.0392 148.211 80.2462 149.213 77.6974 149.547L76.8888 147.842ZM85.9064 142.744V133.621H88.1564V137.207H90.3185V139.053H88.1564V142.744H85.9064ZM95.1483 134.746C97.5916 134.746 99.3582 136.952 99.367 140.441C99.3582 143.957 97.5916 146.154 95.1483 146.154C92.6961 146.154 90.9207 143.957 90.9295 140.441C90.9207 136.952 92.6961 134.746 95.1483 134.746ZM93.0916 140.441C93.0916 142.823 93.9266 144.124 95.1483 144.115C96.3963 144.124 97.2137 142.823 97.2225 140.441C97.2137 138.068 96.3963 136.768 95.1483 136.768C93.9266 136.768 93.0916 138.068 93.0916 140.441ZM101.213 149.617V133.621H103.463V139.65H105.818V141.514H103.463V149.617H101.213ZM120.861 145.926V147.754H106.218V145.926H112.388V142.973H107.765V134.641H110.015V137.119H116.994V134.641H119.226V142.973H114.621V145.926H120.861ZM110.015 141.18H116.994V138.912H110.015V141.18ZM126.728 137.646C126.719 140.239 127.44 142.911 129.628 144.309L128.415 146.049C127.027 145.214 126.156 143.825 125.647 142.19C125.075 144.001 124.117 145.521 122.667 146.4L121.296 144.748C123.669 143.28 124.548 140.459 124.548 137.752V134.992H126.728V137.646ZM127.941 140.846V139.018H130.015V133.85H132.107V148.879H130.015V140.846H127.941ZM133.32 149.617V133.621H135.464V149.617H133.32ZM151.614 145.908V147.754H136.972V145.908H140.241V141.988C139.002 141.241 138.255 140.107 138.255 138.701C138.255 136.108 140.786 134.403 144.266 134.395C147.729 134.403 150.287 136.108 150.296 138.701C150.287 140.081 149.566 141.197 148.362 141.944V145.908H151.614ZM140.47 138.701C140.47 140.266 141.973 141.232 144.266 141.232C146.525 141.232 148.072 140.266 148.081 138.701C148.072 137.093 146.525 136.161 144.266 136.17C141.973 136.161 140.47 137.093 140.47 138.701ZM142.456 145.908H146.095V142.797C145.523 142.911 144.908 142.973 144.266 142.973C143.625 142.973 143.018 142.911 142.456 142.806V145.908ZM155.987 135.273L155.758 144.186H153.508L153.28 135.273H155.987ZM153.174 146.682C153.157 145.873 153.825 145.214 154.651 145.223C155.433 145.214 156.11 145.873 156.11 146.682C156.11 147.499 155.433 148.158 154.651 148.158C153.825 148.158 153.157 147.499 153.174 146.682Z" fill="white"/>
<defs>
<clipPath id="clip0_2134_7826">
<rect width="170" height="55.8279" fill="white" transform="translate(0.5 29.2539)"/>
</clipPath>
</defs>
</svg>
